<?xml version="1.0" encoding="UTF-8" standalone="no"?>
<svg
   xmlns:dc="http://purl.org/dc/elements/1.1/"
   xmlns:cc="http://creativecommons.org/ns#"
   xmlns:rdf="http://www.w3.org/1999/02/22-rdf-syntax-ns#"
   xmlns:svg="http://www.w3.org/2000/svg"
   xmlns="http://www.w3.org/2000/svg"
   xmlns:sodipodi="http://sodipodi.sourceforge.net/DTD/sodipodi-0.dtd"
   xmlns:inkscape="http://www.inkscape.org/namespaces/inkscape"
   viewBox="0 0 130.97 38.78"
   version="1.1"
   id="svg20"
   sodipodi:docname="cupsell.svg"
   inkscape:version="0.92.3 (2405546, 2018-03-11)">
  <metadata
     id="metadata26">
    <rdf:RDF>
      <cc:Work
         rdf:about="">
        <dc:format>image/svg+xml</dc:format>
        <dc:type
           rdf:resource="http://purl.org/dc/dcmitype/StillImage" />
      </cc:Work>
    </rdf:RDF>
  </metadata>
  <defs
     id="defs24" />
  <sodipodi:namedview
     pagecolor="#ffffff"
     bordercolor="#666666"
     borderopacity="1"
     objecttolerance="10"
     gridtolerance="10"
     guidetolerance="10"
     inkscape:pageopacity="0"
     inkscape:pageshadow="2"
     inkscape:window-width="1853"
     inkscape:window-height="895"
     id="namedview22"
     showgrid="false"
     inkscape:zoom="2.611285"
     inkscape:cx="65.485001"
     inkscape:cy="19.389999"
     inkscape:window-x="67"
     inkscape:window-y="27"
     inkscape:window-maximized="1"
     inkscape:current-layer="svg20" />
  <title
     id="title2">Asset 9</title>
  <g
     id="Layer_2"
     data-name="Layer 2"
     transform="matrix(0.74318006,0,0,0.74318006,16.818937,4.9810854)">
    <g
       id="Strona_główna"
       data-name="Strona główna">
      <path
         d="m 54.2,12.1 c 0.49,-0.37 1,-0.76 1.47,-1.12 a 8.6,8.6 0 0 1 6.47,-1.66 6.87,6.87 0 0 1 5.68,4.81 14,14 0 0 1 0.49,7 11.41,11.41 0 0 1 -1.79,4.72 7.86,7.86 0 0 1 -7.14,3.61 7.75,7.75 0 0 1 -6.24,-3.35 l -0.25,-0.32 c 0,0 0,0 -0.13,-0.07 L 51.12,38.78 H 44.17 L 47.68,9.84 h 6.89 l -0.36,2.27 v 0 z m 7.25,6.71 c 0,-0.4 -0.06,-0.81 -0.13,-1.21 a 3.11,3.11 0 0 0 -1.62,-2.41 4.43,4.43 0 0 0 -5.16,1 5.56,5.56 0 0 0 -1.15,5.19 3.22,3.22 0 0 0 1.79,2.2 4.18,4.18 0 0 0 4.67,-0.79 5.45,5.45 0 0 0 1.59,-4"
         id="path4"
         inkscape:connector-curvature="0" />
      <path
         d="m 23,9.17 a 4.92,4.92 0 0 1 -0.45,-0.3 8.37,8.37 0 0 0 -4.8,-2 10.62,10.62 0 0 0 -5.37,0.6 7.94,7.94 0 0 0 -5.05,8.23 c 0.27,4.21 3.61,7.3 8.46,6.9 a 21.56,21.56 0 0 0 3.5,-0.61 11.76,11.76 0 0 0 2,-0.9 l 0.16,-0.07 c 0,0 0.06,0 0.12,0 a 1.16,1.16 0 0 1 0,0.28 c -0.18,2.05 -0.38,4.1 -0.54,6.15 a 0.84,0.84 0 0 1 -0.57,0.77 13.11,13.11 0 0 1 -4.44,1.1 A 16,16 0 0 1 8.6,28.49 13,13 0 0 1 0.22,17.88 15.08,15.08 0 0 1 1.4,8.8 14.77,14.77 0 0 1 13.07,0.18 16.61,16.61 0 0 1 22.4,1.55 c 1.49,0.66 1.54,0.73 1.36,2.32 -0.18,1.59 -0.36,3 -0.56,4.56 a 7.14,7.14 0 0 1 -0.18,0.74"
         id="path6"
         inkscape:connector-curvature="0" />
      <path
         d="m 68.34,26.28 3.17,-5.37 0.71,0.44 a 11.39,11.39 0 0 0 4.48,1.8 4.85,4.85 0 0 0 3.3,-0.56 2.46,2.46 0 0 0 0.31,-4.13 14.1,14.1 0 0 0 -1.8,-1.1 c -1.32,-0.77 -2.68,-1.49 -4,-2.32 a 6.48,6.48 0 0 1 -3,-5.37 c -0.25,-4.59 2.28,-8 6.85,-9.2 A 13.85,13.85 0 0 1 89.05,2 c 0.3,0.17 0.59,0.36 0.93,0.56 L 86.9,8 C 86.31,7.63 85.78,7.26 85.22,6.94 a 6.11,6.11 0 0 0 -3.77,-1 4.79,4.79 0 0 0 -1.54,0.46 2.28,2.28 0 0 0 -0.31,3.78 c 0.74,0.48 1.5,0.94 2.27,1.38 1.19,0.68 2.42,1.27 3.57,2 a 6.62,6.62 0 0 1 3.09,5.65 9.14,9.14 0 0 1 -2.91,7.52 10.36,10.36 0 0 1 -5.71,2.56 16,16 0 0 1 -11.48,-2.93 0.7,0.7 0 0 1 -0.09,-0.11"
         id="path8"
         inkscape:connector-curvature="0" />
      <path
         d="m 110.17,20.77 h -14 a 3,3 0 0 0 2.59,3.69 6.09,6.09 0 0 0 1.17,0 2.25,2.25 0 0 0 2.15,-1.87 h 7.5 c 0,0.15 -0.08,0.27 -0.12,0.39 a 9.33,9.33 0 0 1 -8.23,6.35 13.29,13.29 0 0 1 -5.93,-0.46 8,8 0 0 1 -5.69,-7 11.88,11.88 0 0 1 0.67,-6.25 10,10 0 0 1 8.17,-6.22 12.51,12.51 0 0 1 5.37,0.21 8.26,8.26 0 0 1 6.29,7 13.08,13.08 0 0 1 0.13,3.82 c 0,0.1 0,0.2 -0.06,0.36 m -7,-4 a 2.65,2.65 0 0 0 -2.25,-2.86 5.94,5.94 0 0 0 -1.7,0 3.09,3.09 0 0 0 -2.55,2.86 z"
         id="path10"
         inkscape:connector-curvature="0" />
      <path
         d="m 45.2,9.86 c -0.11,0.94 -0.21,1.82 -0.32,2.7 -0.32,2.63 -0.64,5.25 -1,7.88 a 17.29,17.29 0 0 1 -1.07,4.27 6.6,6.6 0 0 1 -3.67,3.71 12.58,12.58 0 0 1 -4,1 16,16 0 0 1 -6.34,-0.51 6.77,6.77 0 0 1 -4.71,-4.3 8.81,8.81 0 0 1 -0.35,-3.84 c 0.39,-3.53 0.82,-7 1.23,-10.57 A 2.36,2.36 0 0 1 25.06,9.88 H 32 c -0.08,0.64 -0.14,1.26 -0.22,1.88 -0.34,2.77 -0.7,5.55 -1,8.32 a 7.13,7.13 0 0 0 0,1.8 1.9,1.9 0 0 0 1.54,1.63 c 1.95,0.49 3.8,0 4.42,-2.45 a 29.78,29.78 0 0 0 0.56,-3.65 c 0.32,-2.49 0.61,-5 0.92,-7.52 z"
         id="path12"
         inkscape:connector-curvature="0" />
      <path
         d="M 120.54,28.86 124,0.6 h 7 l -3.5,28.26 z"
         id="path14"
         inkscape:connector-curvature="0" />
      <path
         d="m 114.31,0.6 h 6.95 l -3.47,28.25 h -7 L 114.31,0.6"
         id="path16"
         inkscape:connector-curvature="0" />
    </g>
  </g>
</svg>
